<?xml version="1.0" standalone="no"?>
<!DOCTYPE svg PUBLIC "-//W3C//DTD SVG 20010904//EN"
 "http://www.w3.org/TR/2001/REC-SVG-20010904/DTD/svg10.dtd">
<svg version="1.0" xmlns="http://www.w3.org/2000/svg"
 width="450.000000pt" height="450.000000pt" viewBox="0 0 450.000000 450.000000"
 preserveAspectRatio="xMidYMid meet">
<metadata>
Created by potrace 1.16, written by Peter Selinger 2001-2019
</metadata>
<g transform="translate(0.000000,450.000000) scale(0.100000,-0.100000)"
fill="#000000" stroke="none">
<path d="M0 2250 l0 -2250 2250 0 2250 0 0 2250 0 2250 -2250 0 -2250 0 0
-2250z m2398 1248 l-3 -43 -40 2 -40 3 46 -13 c25 -7 62 -23 82 -35 l37 -21 0
34 c0 34 1 35 40 35 l40 0 0 -40 c0 -41 -7 -46 -50 -40 -8 1 -13 0 -10 -2 3
-1 18 -14 33 -28 16 -14 28 -20 27 -15 -8 36 1 45 40 45 l40 0 0 -40 c0 -34
-3 -40 -22 -41 -13 -1 -27 -1 -31 0 -5 1 -6 -3 -2 -9 3 -6 10 -8 15 -5 5 3 14
-4 20 -16 10 -17 9 -20 -1 -14 -9 6 -11 3 -5 -11 3 -10 -6 -3 -21 16 -51 66
-108 113 -173 142 -146 68 -334 39 -445 -69 l-29 -28 17 27 c12 20 13 28 4 32
-8 3 -7 5 3 4 31 -3 51 14 44 36 -5 17 -4 19 6 9 10 -9 18 -9 34 -1 12 6 46
20 76 30 30 10 41 17 24 14 -57 -9 -74 2 -74 45 l0 39 161 0 160 0 -3 -42z
m-396 -73 c5 -44 -3 -52 -47 -47 -33 4 -35 6 -35 43 0 39 0 39 39 39 37 0 39
-2 43 -35z m438 10 c17 -9 30 -18 30 -21 0 -4 -59 23 -69 32 -10 9 13 3 39
-11z m-361 1 c-2 -2 -15 -9 -29 -16 -23 -12 -24 -12 -11 3 7 10 20 17 29 17 8
0 13 -2 11 -4z m184 -23 c-7 -2 -19 -2 -25 0 -7 3 -2 5 12 5 14 0 19 -2 13 -5z
m-663 -73 l0 -40 40 0 40 0 0 -269 c0 -264 0 -269 -20 -264 -11 3 -21 10 -22
17 0 6 -2 16 -3 21 -2 6 -3 30 -4 54 -1 37 -3 42 -16 31 -8 -7 -15 -27 -15
-44 -1 -62 -51 -112 -116 -118 l-39 -3 -2 -60 -1 -60 13 40 c7 22 14 34 14 27
1 -10 5 -10 17 2 8 9 20 16 25 16 5 0 9 -43 9 -95 l0 -95 -80 0 -80 0 0 30 c0
35 -1 34 36 15 36 -19 48 -19 64 0 10 12 9 15 -8 15 -12 0 -49 32 -97 84 l-76
85 -276 1 c-151 0 -282 4 -290 9 -8 4 -46 6 -84 3 l-69 -4 0 281 0 281 40 0
40 0 0 40 0 40 480 0 480 0 0 -40z m333 -45 c-3 -9 -8 -14 -10 -11 -3 3 -2 9
2 15 9 16 15 13 8 -4z m-112 -262 l1 -28 8 30 8 30 1 -35 c1 -36 12 -61 27
-63 5 -1 8 -47 6 -102 -3 -126 1 -145 33 -145 14 0 25 3 26 8 0 4 1 62 2 129
1 75 6 126 13 133 9 9 23 8 55 -2 29 -8 105 -12 219 -12 156 0 181 2 234 22
82 31 93 29 105 -15 14 -48 14 -233 1 -267 -6 -18 -6 -26 1 -26 6 0 9 -7 5
-15 -5 -13 105 -15 954 -15 l960 0 0 -40 0 -40 -360 0 -360 0 0 -40 0 -40 360
0 360 0 0 -40 0 -40 -400 0 -400 0 0 -40 0 -40 -360 0 -360 0 0 -40 0 -40 40
0 40 0 0 -40 c0 -28 4 -40 14 -40 8 0 14 -10 14 -22 1 -55 12 -144 21 -167 5
-14 15 -48 22 -76 7 -27 18 -53 25 -58 7 -4 11 -14 8 -22 -7 -16 25 -106 40
-117 7 -5 7 -8 -2 -8 -10 0 -11 -15 -6 -65 6 -55 4 -65 -9 -65 -9 0 -18 -9
-22 -19 -3 -10 -18 -24 -33 -30 -37 -14 -166 -41 -228 -48 -47 -5 -53 -3 -59
16 -3 11 -15 26 -26 31 -39 21 -12 84 38 87 15 1 49 7 75 15 43 13 45 15 28
26 -15 9 -20 24 -21 60 0 33 -3 41 -8 27 -7 -18 -9 -18 -23 10 -9 17 -16 47
-16 67 0 36 -20 89 -22 58 -3 -47 -22 50 -27 137 -7 122 -14 138 -46 102 -12
-14 -26 -33 -32 -42 -9 -14 -23 -15 -105 -8 -52 4 -285 5 -517 2 -379 -5 -421
-4 -403 9 20 15 19 16 -15 34 -44 24 -60 12 -57 -39 2 -20 -2 -35 -8 -35 -6 0
-8 -4 -5 -10 3 -5 2 -10 -4 -10 -5 0 -12 -26 -16 -57 -3 -32 -10 -66 -16 -76
-5 -10 -7 -23 -3 -29 5 -7 3 -8 -6 -3 -9 5 -11 1 -6 -16 3 -13 3 -18 0 -11 -7
15 -24 6 -24 -14 0 -9 -10 -30 -23 -47 -13 -18 -30 -51 -37 -74 -11 -36 -18
-43 -39 -44 -20 -1 -21 -2 -6 -5 11 -3 53 -14 92 -27 66 -20 73 -24 73 -48 0
-15 -7 -33 -16 -40 -9 -7 -20 -24 -25 -37 -8 -20 -14 -23 -37 -19 -15 3 -49
10 -77 16 -160 31 -172 39 -192 128 -8 35 -6 53 13 107 24 68 54 129 67 134 4
2 7 14 7 26 0 21 29 123 49 171 19 45 31 93 31 119 0 36 36 86 61 86 16 0 19
7 19 40 l0 40 80 0 80 0 0 40 0 40 120 0 c99 0 120 3 120 15 0 25 58 48 107
41 33 -4 44 -3 41 7 -3 8 -30 13 -76 15 l-72 3 0 39 c0 40 0 40 -40 40 l-40 0
0 40 0 40 -46 0 -47 0 7 63 c4 34 7 124 6 200 l-1 137 31 0 c26 0 30 -4 31
-27z m879 -38 c8 -9 30 -15 56 -15 l44 0 0 -119 0 -119 -60 -4 c-33 -1 -60 1
-60 6 0 4 -9 6 -19 3 -12 -3 -22 1 -25 10 -8 21 -7 228 1 220 3 -4 12 -2 19 4
8 6 22 8 31 5 15 -5 15 -4 -1 9 -11 8 -15 15 -9 15 6 0 16 -7 23 -15z m-1098
-233 c-7 -2 -10 -7 -8 -11 3 -4 -1 -8 -8 -8 -11 0 -12 4 -3 18 6 10 16 15 21
12 6 -4 5 -8 -2 -11z m-298 -81 c17 -19 12 -19 -282 -20 -199 -1 -302 2 -307
9 -4 7 85 10 285 10 192 0 289 3 285 10 -10 16 1 11 19 -9z m261 -11 c3 -5 -1
-10 -9 -10 -9 0 -16 5 -16 10 0 6 4 10 9 10 6 0 13 -4 16 -10z m-225 -70 c5 0
10 -4 10 -10 0 -5 -16 -10 -35 -10 -34 0 -35 1 -35 36 l0 37 25 -27 c13 -14
29 -26 35 -26z m46 -27 c-3 -4 -6 0 -6 8 0 12 -2 12 -9 0 -6 -9 -8 -5 -8 13 0
27 0 27 14 6 8 -12 12 -24 9 -27z m-426 -593 l0 -40 40 0 40 0 0 -40 0 -40 40
0 40 0 0 -80 0 -80 40 0 40 0 0 -40 0 -40 -79 0 c-55 0 -81 4 -84 13 -3 9 -7
9 -20 -1 -9 -8 -24 -12 -34 -10 -10 1 -24 -1 -32 -6 -7 -5 -16 -5 -20 0 -7 11
-124 14 -131 4 -8 -11 -80 1 -80 14 -1 18 -47 66 -65 66 -13 0 -15 18 -15 120
l0 120 40 0 40 0 0 40 0 40 120 0 120 0 0 -40z m2285 -57 c-4 -10 -10 -26 -12
-35 -10 -33 -33 -20 -33 17 0 31 3 35 26 35 21 0 25 -3 19 -17z m78 10 c-7 -2
-19 -2 -25 0 -7 3 -2 5 12 5 14 0 19 -2 13 -5z m-50 -93 c-3 -12 1 -28 10 -38
19 -20 30 -71 47 -204 7 -54 16 -98 21 -98 5 0 9 35 9 78 0 42 3 87 6 100 7
23 39 31 46 11 4 -13 -5 -100 -17 -161 -6 -31 -4 -38 9 -38 8 0 18 11 22 25 6
24 9 25 90 25 l84 0 0 -40 0 -40 440 0 440 0 0 -40 0 -40 -480 0 -480 0 0 -80
0 -80 200 0 200 0 0 -80 0 -80 -1680 0 -1680 0 0 80 0 80 529 0 c455 -1 530
-3 535 -15 5 -13 88 -15 611 -15 569 0 605 1 605 18 0 14 2 15 10 2 6 -10 10
-11 10 -2 0 9 41 12 170 12 l170 0 0 40 0 40 -41 0 -40 0 3 70 c2 38 7 70 11
70 5 0 6 4 3 8 -2 4 4 9 15 9 22 2 22 2 9 -32 -6 -15 -6 -24 -1 -20 6 3 14 -2
20 -12 8 -16 10 -15 16 8 4 15 6 40 4 55 -5 68 0 84 26 84 14 0 25 -6 25 -12
0 -10 3 -9 9 1 7 11 10 9 16 -8 3 -11 10 -21 15 -21 5 0 0 30 -11 67 -10 38
-19 69 -19 70 0 9 -29 1 -33 -9 -4 -10 -6 -10 -6 0 -1 7 6 15 14 18 8 4 15 13
15 22 0 10 -10 3 -25 -18 l-25 -34 0 122 0 122 39 0 c34 0 38 -2 34 -20z m167
6 c0 -9 -7 -12 -20 -9 -11 3 -20 0 -20 -6 0 -11 15 -15 35 -11 6 1 6 -2 2 -7
-5 -4 -10 -6 -12 -3 -1 3 -13 -4 -26 -15 -12 -11 -19 -14 -14 -6 6 11 4 13 -8
8 -11 -4 -14 -2 -10 9 3 7 9 14 13 14 4 0 10 9 13 20 6 23 47 28 47 6z m-1185
-141 c30 -30 32 -64 4 -99 -43 -55 -139 -21 -139 50 0 66 87 98 135 49z m-634
-250 c-7 -38 -8 -39 -19 -18 -9 17 -9 28 0 48 16 36 28 18 19 -30z m1189 10
c0 -30 -10 -55 -21 -55 -5 0 -9 23 -9 51 0 45 2 50 15 39 8 -7 15 -23 15 -35z
m377 -42 c-3 -10 -5 -4 -5 12 0 17 2 24 5 18 2 -7 2 -21 0 -30z m-1517 -153
c0 -5 -2 -10 -4 -10 -3 0 -8 5 -11 10 -3 6 -1 10 4 10 6 0 11 -4 11 -10z
m1085 -10 c3 -5 2 -10 -4 -10 -5 0 -13 5 -16 10 -3 6 -2 10 4 10 5 0 13 -4 16
-10z"/>
<path d="M646 2773 c-4 -10 -4 -14 0 -10 4 4 14 1 22 -6 13 -10 14 -9 3 11
-14 27 -17 27 -25 5z"/>
<path d="M2088 2909 c-28 -16 -21 -30 9 -18 14 5 39 7 55 4 21 -5 28 -3 28 9
0 19 -64 22 -92 5z"/>
<path d="M2327 2913 c-16 -15 -5 -25 23 -19 17 3 41 1 55 -4 27 -10 33 -2 13
18 -13 13 -80 17 -91 5z"/>
<path d="M2124 2845 c-7 -18 3 -35 21 -35 18 0 26 15 19 34 -8 20 -33 21 -40
1z"/>
<path d="M2347 2853 c-4 -3 -7 -15 -7 -25 0 -21 36 -25 43 -5 9 27 -17 50 -36
30z"/>
<path d="M1780 2806 c0 -7 7 -19 15 -26 13 -11 15 -8 15 14 0 16 -5 26 -15 26
-8 0 -15 -6 -15 -14z"/>
<path d="M2189 2626 c18 -22 68 -29 102 -16 48 20 34 30 -42 30 -61 0 -70 -2
-60 -14z"/>
<path d="M2247 2573 c-13 -13 -7 -61 9 -67 9 -3 17 -6 19 -6 7 0 35 32 35 40
0 24 -47 49 -63 33z"/>
<path d="M2560 2500 l0 -80 160 0 160 0 0 80 0 80 -160 0 -160 0 0 -80z"/>
<path d="M2442 2517 c-12 -13 -22 -28 -22 -34 0 -17 -28 -35 -41 -27 -9 5 -7
10 7 16 20 9 -3 5 -76 -11 -19 -4 -75 -6 -125 -5 -82 3 -90 5 -93 24 -2 11 -7
20 -12 20 -4 0 -6 -8 -4 -17 3 -11 -7 -31 -23 -48 -23 -25 -34 -29 -67 -27
-25 2 -36 0 -31 -7 3 -6 13 -11 22 -11 24 0 83 -31 77 -41 -5 -9 14 -13 54 -9
13 1 28 -3 35 -8 25 -19 140 -23 197 -6 30 9 60 19 65 23 6 4 37 15 70 26 77
24 89 35 39 35 -22 0 -45 -5 -51 -11 -6 -6 -17 -9 -25 -6 -9 3 -5 8 10 14 l23
9 -25 22 c-31 26 -25 51 10 44 15 -3 24 0 24 8 0 7 -8 10 -20 7 -24 -6 -25 1
-3 25 24 26 10 22 -15 -5z m-162 -81 c0 -3 -5 -17 -10 -31 -9 -23 -13 -25 -25
-15 -25 21 -19 50 10 50 14 0 25 -2 25 -4z m92 -58 c15 15 42 16 33 1 -4 -6
-10 -8 -13 -5 -3 3 -11 1 -18 -5 -15 -12 -34 -4 -34 14 0 7 4 6 10 -3 7 -12
12 -12 22 -2z"/>
<path d="M3411 2414 c0 -11 3 -14 6 -6 3 7 2 16 -1 19 -3 4 -6 -2 -5 -13z"/>
<path d="M2226 2241 c-4 -5 3 -7 14 -4 11 3 27 0 35 -7 9 -7 15 -8 15 -2 0 19
-54 30 -64 13z"/>
<path d="M2240 2160 c19 -13 30 -13 30 0 0 6 -10 10 -22 10 -19 0 -20 -2 -8
-10z"/>
<path d="M2188 2093 c46 -2 118 -2 160 0 42 1 5 3 -83 3 -88 0 -123 -2 -77 -3z"/>
<path d="M2718 2812 c-16 -7 -28 -20 -28 -28 0 -9 5 -12 11 -8 6 3 15 1 19 -6
11 -18 40 -5 40 17 0 33 -13 40 -42 25z"/>
<path d="M952 1647 c-9 -11 -8 -13 6 -12 19 1 29 18 14 23 -5 1 -14 -3 -20
-11z"/>
<path d="M3251 1834 c0 -11 3 -14 6 -6 3 7 2 16 -1 19 -3 4 -6 -2 -5 -13z"/>
<path d="M3278 1193 c18 -2 45 -2 60 0 15 2 0 4 -33 4 -33 0 -45 -2 -27 -4z"/>
<path d="M3393 1193 c9 -2 25 -2 35 0 9 3 1 5 -18 5 -19 0 -27 -2 -17 -5z"/>
</g>
</svg>
